<svg xmlns="http://www.w3.org/2000/svg" viewBox="0 0 32 32"><path fill="#f9a825" d="M5 12a1 1 0 0 0-1 1.21L6.68 25.63A3 3 0 0 0 9.62 28H16V12zM26.8 18.7L28 13.21A1 1 0 0 0 27 12H16V28h3.54a6 6 0 1 0 7.26-9.3z"/><path fill="#ffee58" d="M4.5 9a2.5 2.5 0 0 0 0 5H16V9zM27.5 9H16v5H27.5a2.5 2.5 0 0 0 0-5z"/><path fill="#f57f17" d="M25.88,2.73a2.56,2.56,0,0,0-3.53,0L16,9l-3.33,3.29L11,14h7.18l.3-.29L23.15,9l2.73-2.73a2.51,2.51,0,0,0,0-3.54ZM24.46,4.85,20.32,9l-3,3H15.81l3-3,4.91-4.85a.5.5,0,1,1,.7.7Z"/><circle cx="24" cy="24" r="6" fill="#ff6f00"/><path fill="#f9a825" d="M23.53,26.71a1,1,0,0,1-.7-.29l-1.57-1.54a1,1,0,0,1,1.4-1.43l.86.84,1.8-1.85a1,1,0,0,1,1.44,1.39l-2.51,2.58a1,1,0,0,1-.71.3Z"/><path fill="#fdd835" d="M11 18H10a1 1 0 0 1 0-2h1a1 1 0 0 1 0 2zM15 16H14a1 1 0 0 0 0 2h1a1 1 0 0 0 0-2zM19 18H18a1 1 0 0 1 0-2h1a1 1 0 0 1 0 2zM11 21H10a1 1 0 0 1 0-2h1a1 1 0 0 1 0 2zM15 19H14a1 1 0 0 0 0 2h1a1 1 0 0 0 0-2z"/><path fill="#fbc02d" d="M5,12a1,1,0,0,0-1,1.21L6.68,25.63A3,3,0,0,0,9.62,28H16V12Z"/><path fill="#f9a825" d="M26.8,18.7,28,13.21A1,1,0,0,0,27,12H16V28h3.54a6,6,0,1,0,7.26-9.3Z"/><path fill="#fff176" d="M4.5,9a2.5,2.5,0,0,0,0,5H16V9Z"/><path fill="#ffee58" d="M27.5,9H16v5H27.5a2.5,2.5,0,0,0,0-5Z"/><path fill="#f57f17" d="M25.88,2.73a2.56,2.56,0,0,0-3.53,0L16,9l-3.33,3.29L11,14h7.18l.3-.29L23.15,9l2.73-2.73a2.51,2.51,0,0,0,0-3.54ZM24.46,4.85,20.32,9l-3,3H15.81l.19-.19L18.85,9l4.91-4.85a.5.5,0,1,1,.7.7Z"/><circle cx="24" cy="24" r="6" fill="#ff6f00"/><path fill="#fdd835" d="M23.53,26.71a1,1,0,0,1-.7-.29l-1.57-1.54a1,1,0,0,1,1.4-1.43l.86.84,1.8-1.85a1,1,0,0,1,1.44,1.39l-2.51,2.58a1,1,0,0,1-.71.3Z"/><path fill="#ffee58" d="M11 18H10a1 1 0 0 1 0-2h1a1 1 0 0 1 0 2zM15 16H14a1 1 0 0 0 0 2h1a1 1 0 0 0 0-2z"/><path fill="#fdd835" d="M19,18H18a1,1,0,0,1,0-2h1a1,1,0,0,1,0,2Z"/><path fill="#ffee58" d="M11 21H10a1 1 0 0 1 0-2h1a1 1 0 0 1 0 2zM15 19H14a1 1 0 0 0 0 2h1a1 1 0 0 0 0-2z"/><path fill="#f9a825" d="M16,9v5H11l1.71-1.71Z"/></svg>