<svg xmlns="http://www.w3.org/2000/svg" viewBox="0 0 64 64"><rect width="29.63" height="6.81" x="2.83" y="17.19" fill="#f66"/><path fill="#3e4568" d="M32.46,25H2.83a1,1,0,0,1-1-1V17.19a1,1,0,0,1,1-1H32.46a1,1,0,0,1,1,1V24A1,1,0,0,1,32.46,25ZM3.83,23H31.46V18.19H3.83Z"/><rect width="29.63" height="22.81" x="2.83" y="24" fill="#ffffa9"/><path fill="#3e4568" d="M32.46,47.81H2.83a1,1,0,0,1-1-1V24a1,1,0,0,1,1-1H32.46a1,1,0,0,1,1,1V46.81A1,1,0,0,1,32.46,47.81Zm-28.63-2H31.46V25H3.83Z"/><rect width="7.67" height="4.35" x="20.25" y="28.83" fill="#f66"/><path fill="#3e4568" d="M27.92 34.19H20.25a1 1 0 0 1-1-1V28.83a1 1 0 0 1 1-1h7.67a1 1 0 0 1 1 1v4.36A1 1 0 0 1 27.92 34.19zm-6.67-2h5.67V29.83H21.25zM60.83 23.4H36.33a1 1 0 0 1 0-2h24.5a1 1 0 0 1 0 2zM55 29.4H36.33a1 1 0 0 1 0-2H55a1 1 0 0 1 0 2zM61.17 35.4H36.67a1 1 0 0 1 0-2h24.5a1 1 0 0 1 0 2zM55.29 41.4H36.67a1 1 0 0 1 0-2H55.29a1 1 0 0 1 0 2z"/></svg>