<svg xmlns="http://www.w3.org/2000/svg" width="32" height="32" viewBox="0 0 32 32"><g transform="translate(-398.614 -819.017)"><circle cx="-61.095" cy="920.047" r="4.5" fill="#a0e06e" transform="rotate(-30)"/><path fill="none" stroke="#a6d380" stroke-linecap="round" stroke-linejoin="round" d="m 403.64954,829.33178 6.9282,-4"/><rect width="6" height="15" x="881.481" y="284.265" fill="#ffdc7b" rx="3" ry="3" transform="rotate(45)"/><path fill="#373449" d="m 417.27539,-191.0332 -0.70898,0.70508 0.002,0.002 4.24023,4.24023 0.70899,-0.70508 -0.002,-0.002 -4.24023,-4.24023 z" color="#000" font-family="sans-serif" font-weight="400" overflow="visible" transform="translate(0 1020.362)" style="line-height:normal;text-indent:0;text-align:start;text-decoration-line:none;text-decoration-style:solid;text-decoration-color:#000;text-transform:none;block-progression:tb;isolation:auto;mix-blend-mode:normal"/><circle cx="295.018" cy="-893.391" r="3.5" fill="#cdd7e0" transform="rotate(135)"/><path fill="none" stroke="#c1ccf0" stroke-linecap="round" stroke-linejoin="round" d="m 425.23497,838.21056 -4.24264,4.24264"/><rect width="6" height="15" x="-308.624" y="876.253" fill="#ff5855" rx="3" ry="3" transform="rotate(-45)"/><path fill="#373449" d="m 406.39453,-177.50586 0.70703,0.70703 4.24219,-4.24219 0,-0.002 -0.70703,-0.70508 -4.24219,4.24219 z" color="#000" font-family="sans-serif" font-weight="400" overflow="visible" transform="translate(0 1020.362)" style="line-height:normal;text-indent:0;text-align:start;text-decoration-line:none;text-decoration-style:solid;text-decoration-color:#000;text-transform:none;block-progression:tb;isolation:auto;mix-blend-mode:normal"/></g></svg>