<svg xmlns="http://www.w3.org/2000/svg" enable-background="new 0 0 66 66" viewBox="0 0 66 66"><path fill="#fdf1da" d="M55.93 47.22c-.38 0-.68.31-.68.68 0 .38.31.68.68.68.38 0 .68-.3.68-.68C56.61 47.53 56.3 47.22 55.93 47.22zM34.07 7.57c.4 0 .71-.32.71-.71 0-.39-.32-.71-.71-.71-.39 0-.71.32-.71.71C33.36 7.26 33.68 7.57 34.07 7.57z"/><circle cx="2.89" cy="35.97" r=".71" fill="#fdf1da"/><circle cx="1.71" cy="16.49" r=".71" fill="#fdf1da"/><path fill="#fdf1da" d="M46.31 11.21c1.07 0 1.93-.87 1.93-1.93 0-1.07-.87-1.93-1.93-1.93-1.07 0-1.93.87-1.93 1.93C44.37 10.35 45.24 11.21 46.31 11.21zM46.31 7.87c.78 0 1.41.63 1.41 1.41 0 .78-.63 1.41-1.41 1.41-.78 0-1.41-.63-1.41-1.41C44.89 8.5 45.53 7.87 46.31 7.87zM3.8 45.4c-1.07 0-1.93.87-1.93 1.93 0 1.07.87 1.93 1.93 1.93 1.07 0 1.93-.87 1.93-1.93C5.73 46.26 4.86 45.4 3.8 45.4zM3.8 48.74c-.78 0-1.41-.63-1.41-1.41s.63-1.41 1.41-1.41c.78 0 1.41.63 1.41 1.41S4.58 48.74 3.8 48.74zM61.35 57.2c-.04-.03-.06-.07-.05-.12l.05-.65c.01-.12-.12-.19-.22-.13l-.55.36c-.04.03-.09.03-.13.01l-.61-.25c-.11-.04-.22.05-.19.17l.17.63c.01.04 0 .09-.03.13l-.42.5c-.07.09-.02.22.1.23l.66.03c.05 0 .09.03.11.07l.35.56c.06.1.21.08.25-.02l.23-.61c.02-.04.05-.08.1-.09l.64-.16c.11-.03.14-.17.05-.24L61.35 57.2z"/><path fill="#fdf1da" d="M60.85,34.95H45.08c0.18,0,0.36-0.01,0.53-0.04c-1.93-0.25-3.56-1.74-3.75-3.71c-0.21-2.25,1.38-4.17,3.49-4.5H58.5c2.29,0,4.15-1.86,4.15-4.15c0-2.29-1.86-4.15-4.15-4.15H37.19c2.29-0.01,4.14-1.86,4.14-4.15c0-2.29-1.86-4.15-4.15-4.15H13.3c-2.29,0-4.15,1.86-4.15,4.15c0,2.29,1.86,4.15,4.15,4.15h7.69c2.29,0.01,4.14,1.86,4.14,4.15c0,2.06-1.5,3.77-3.47,4.09h-3.93c-2.42,0-4.36,2.08-4.13,4.56c0.2,2.16,2.13,3.75,4.3,3.75H7.92c-2.43,0-4.37,2.08-4.13,4.56C4,41.66,5.93,43.25,8.1,43.25h12.95v0h0.88c2.29,0,4.15,1.86,4.15,4.15c0,2.29-1.86,4.15-4.15,4.15h-0.88v0h-9.24c-2.42,0-4.36,2.07-4.13,4.54c0.2,2.16,2.13,3.76,4.3,3.76h40.07c2.43,0,4.37-2.09,4.13-4.56c-0.21-2.15-2.14-3.74-4.3-3.74h-1.4c-2.29,0-4.15-1.86-4.15-4.15c0-2.29,1.86-4.15,4.15-4.15h10.2c2.17,0,4.1-1.58,4.31-3.74C65.22,37.03,63.28,34.95,60.85,34.95z"/><path fill="#fff" d="M44.03,15.62v42.25H15.19V15.62c0-1.01,0.82-1.84,1.84-1.84H42.2C43.21,13.78,44.03,14.6,44.03,15.62z"/><path fill="#241c70" d="M44.03,58.41H15.19c-0.3,0-0.54-0.24-0.54-0.54V15.62c0-1.31,1.07-2.38,2.38-2.38H42.2c1.31,0,2.38,1.07,2.38,2.38v42.25C44.58,58.17,44.33,58.41,44.03,58.41z M15.73,57.33h27.75V15.62c0-0.71-0.58-1.29-1.29-1.29H17.03c-0.71,0-1.29,0.58-1.29,1.29V57.33z"/><path fill="#f8c257" d="M18.75 53.12V40.8c0-.66.54-1.2 1.2-1.2h6.15c.66 0 1.2.54 1.2 1.2v12.32c0 .66-.54 1.2-1.2 1.2h-6.15C19.28 54.32 18.75 53.78 18.75 53.12zM31.93 53.12V40.8c0-.66.54-1.2 1.2-1.2h6.15c.66 0 1.2.54 1.2 1.2v12.32c0 .66-.54 1.2-1.2 1.2h-6.15C32.46 54.32 31.93 53.78 31.93 53.12zM18.75 30.64V18.53c0-.66.54-1.2 1.2-1.2h19.34c.66 0 1.2.54 1.2 1.2v12.11c0 .66-.54 1.2-1.2 1.2H19.94C19.28 31.84 18.75 31.3 18.75 30.64z"/><path d="M27.3 40.8v12.32c0 .66-.54 1.19-1.2 1.19h-6.15c-.66 0-1.19-.53-1.19-1.19v-.61h5.38c.66 0 1.2-.54 1.2-1.2v-11.7h.77C26.76 39.61 27.3 40.14 27.3 40.8zM40.47 40.8v12.32c0 .66-.53 1.19-1.19 1.19h-6.15c-.66 0-1.2-.53-1.2-1.19v-.61h5.38c.66 0 1.19-.54 1.19-1.2v-11.7h.78C39.94 39.61 40.47 40.14 40.47 40.8zM40.47 18.53v12.11c0 .66-.53 1.19-1.19 1.19H19.94c-.66 0-1.19-.53-1.19-1.19v-.61h18.56c.66 0 1.19-.53 1.19-1.19v-11.5h.78C39.94 17.34 40.47 17.87 40.47 18.53z" opacity=".08"/><path fill="#241c70" d="M26.1 54.86h-6.15c-.96 0-1.74-.78-1.74-1.74V40.8c0-.96.78-1.74 1.74-1.74h6.15c.96 0 1.74.78 1.74 1.74v12.32C27.84 54.08 27.06 54.86 26.1 54.86zM19.94 40.15c-.36 0-.65.29-.65.65v12.32c0 .36.29.65.65.65h6.15c.36 0 .65-.29.65-.65V40.8c0-.36-.29-.65-.65-.65H19.94zM39.28 54.86h-6.15c-.96 0-1.74-.78-1.74-1.74V40.8c0-.96.78-1.74 1.74-1.74h6.15c.96 0 1.74.78 1.74 1.74v12.32C41.02 54.08 40.24 54.86 39.28 54.86zM33.13 40.15c-.36 0-.65.29-.65.65v12.32c0 .36.29.65.65.65h6.15c.36 0 .65-.29.65-.65V40.8c0-.36-.29-.65-.65-.65H33.13zM39.28 32.38H19.94c-.96 0-1.74-.78-1.74-1.74V18.53c0-.96.78-1.74 1.74-1.74h19.34c.96 0 1.74.78 1.74 1.74v12.11C41.02 31.6 40.24 32.38 39.28 32.38zM19.94 17.88c-.36 0-.65.29-.65.65v12.11c0 .36.29.65.65.65h19.34c.36 0 .65-.29.65-.65V18.53c0-.36-.29-.65-.65-.65H19.94z"/><circle cx="39.67" cy="35.83" r="1.51" fill="#f8c257"/><path fill="#241c70" d="M39.67,37.89c-1.14,0-2.06-0.92-2.06-2.06c0-1.14,0.92-2.06,2.06-2.06c1.14,0,2.06,0.92,2.06,2.06C41.73,36.96,40.81,37.89,39.67,37.89z M39.67,34.86c-0.54,0-0.97,0.44-0.97,0.97c0,0.54,0.44,0.97,0.97,0.97s0.97-0.44,0.97-0.97C40.64,35.29,40.21,34.86,39.67,34.86z"/><path fill="#241c70" d="M38.18 36.37h-4.85c-.3 0-.54-.24-.54-.54s.24-.54.54-.54h4.85c.3 0 .54.24.54.54S38.48 36.37 38.18 36.37zM48.83 58.41H10.39c-.3 0-.54-.24-.54-.54 0-.3.24-.54.54-.54h38.44c.3 0 .54.24.54.54C49.37 58.17 49.13 58.41 48.83 58.41z"/><g><path fill="#fff" d="M24.75,21.8c0,0.59-0.48,1.07-1.07,1.07c-0.59,0-1.06-0.48-1.06-1.07c0-0.59,0.48-1.07,1.06-1.07C24.27,20.73,24.75,21.21,24.75,21.8z"/></g></svg>