<svg xmlns="http://www.w3.org/2000/svg" data-name="Layer 1" viewBox="0 0 512 512"><path fill="#ffcd85" d="M168.32583,437.92861l16.41271-16.41271a31.8505,31.8505,0,0,1,20.43714-9.26051l21.05958-1.3813a117.22907,117.22907,0,0,0,97.06126-64.31381l15.16359-30.15616L281.64047,271.5,159.66841,361.89483l2.36673,60.60251Z"/><path fill="#ffb74e" d="M323.29657,326.5603A117.22927,117.22927,0,0,1,226.23529,390.874l-21.05957,1.38135a31.85018,31.85018,0,0,0-20.43726,9.2605l-22.70332,20.98147,6.29073,15.43125,16.41259-16.41272a31.85018,31.85018,0,0,1,20.43726-9.2605l21.05957-1.38135a117.22927,117.22927,0,0,0,97.06128-64.31372l15.16357-30.15625-7.19677-5.6875Z"/><rect width="211.446" height="338.313" x="150.21" y="7.5" fill="#676e87" rx="38.445"/><path fill="#595f74" d="M323.21149,7.5h-20a38.4447,38.4447,0,0,1,38.4447,38.4447v261.424a38.4446,38.4446,0,0,1-38.4447,38.44458h20a38.4446,38.4446,0,0,0,38.4447-38.44458V45.9447A38.4447,38.4447,0,0,0,323.21149,7.5Z"/><rect width="211.446" height="223.198" x="150.21" y="61.796" fill="#b3e0ff"/><rect width="20" height="223.198" x="341.656" y="61.796" fill="#8cd0ff"/><path fill="#595f74" d="M169.09174,243.0481a26.60345,26.60345,0,0,1-2.96375-19.05054l10.44678-47.50806c5.25476-23.89673-2.26966-46.55688-26.36438-47.8341V307.36865a38.4446,38.4446,0,0,0,38.4447,38.44458h7.19434l3.82934-14.4768a90.661,90.661,0,0,0,.00569-46.3488c-2.04512-7.73993-15.12349-15.23951-19.20674-22.28719Z"/><path fill="#8cd0ff" d="M190.47772,262.70044l-11.386-19.65234a26.60345,26.60345,0,0,1-2.96375-19.05054l10.44678-47.50806a39.427,39.427,0,0,0-36.36438-47.8341v156.339h49.44848A90.58875,90.58875,0,0,0,190.47772,262.70044Z"/><path fill="#ffcd85" d="M180.47828 366.11869l9.20049-34.78221a90.66422 90.66422 0 0 0-9.201-68.636L169.09165 243.048a26.60387 26.60387 0 0 1-2.96367-19.05042l10.44681-47.50809a39.4282 39.4282 0 0 0-38.50818-47.896h-.00006a5.53381 5.53381 0 0 0-5.24982 3.78386L96.379 241.69049a40.38985 40.38985 0 0 0-2.07267 12.77238V293.9793a40.38986 40.38986 0 0 1-8.21161 24.41107L73.94447 334.40666l88.09067 88.09068zM345.13464 121.48674l0 0a25.65126 25.65126 0 0 1-.25057-36.84615l9.185-9.0201a25.65126 25.65126 0 0 1 35.69577-.24275l0 0a25.65126 25.65126 0 0 1 .25057 36.84615l-9.185 9.02011A25.65126 25.65126 0 0 1 345.13464 121.48674z"/><path fill="#ffc166" d="M389.76483,75.37775v-.00006a25.62555,25.62555,0,0,0-22.75159-6.60889,25.52357,25.52357,0,0,1,12.75159,6.60889v.00006a25.65128,25.65128,0,0,1,.25049,36.84613l-9.18494,9.02008a25.53824,25.53824,0,0,1-12.94421,6.85162,25.61691,25.61691,0,0,0,22.94421-6.85162l9.18494-9.02008A25.65128,25.65128,0,0,0,389.76483,75.37775Z"/><path fill="#ffcd85" d="M340.30669,181.615l0,0a25.65126,25.65126,0,0,1-.25057-36.84615l9.185-9.02011a25.65127,25.65127,0,0,1,35.69577-.24275l0,0a25.65126,25.65126,0,0,1,.25057,36.84615l-9.185,9.0201A25.65126,25.65126,0,0,1,340.30669,181.615Z"/><path fill="#ffc166" d="M384.937,135.506h-.00012a25.62559,25.62559,0,0,0-22.75159-6.60889,25.52276,25.52276,0,0,1,12.75159,6.60889h.00012a25.65135,25.65135,0,0,1,.25049,36.84619l-9.18506,9.02014a25.53926,25.53926,0,0,1-12.94409,6.85157,25.61656,25.61656,0,0,0,22.94409-6.85157l9.18506-9.02014A25.65135,25.65135,0,0,0,384.937,135.506Z"/><path fill="#ffcd85" d="M338.11151,241.46517l0,0a25.65126,25.65126,0,0,1-.25057-36.84615l9.185-9.02011a25.65127,25.65127,0,0,1,35.69577-.24275l0,0a25.65126,25.65126,0,0,1,.25057,36.84615l-9.185,9.0201A25.65126,25.65126,0,0,1,338.11151,241.46517Z"/><path fill="#ffc166" d="M382.74164,195.3562h0a25.625,25.625,0,0,0-22.75147-6.60889,25.52186,25.52186,0,0,1,12.75147,6.60889h0a25.65124,25.65124,0,0,1,.25061,36.84619l-9.18494,9.02A25.538,25.538,0,0,1,350.863,248.074a25.61718,25.61718,0,0,0,22.94433-6.85156l9.18494-9.02A25.65124,25.65124,0,0,0,382.74164,195.3562Z"/><path fill="#ffcd85" d="M338.11151,300.95119l0,0a25.65126,25.65126,0,0,1-.25057-36.84615l9.185-9.02011a25.65127,25.65127,0,0,1,35.69577-.24275l0,0a25.65126,25.65126,0,0,1,.25057,36.84615l-9.185,9.02011A25.65126,25.65126,0,0,1,338.11151,300.95119Z"/><path fill="#ffb74e" d="M382.74164,254.84216h0a25.62565,25.62565,0,0,0-22.75147-6.60888,25.52375,25.52375,0,0,1,12.75147,6.60888h0a25.65124,25.65124,0,0,1,.25061,36.84619l-9.18494,9.02015a25.539,25.539,0,0,1-12.94433,6.85156,25.61756,25.61756,0,0,0,22.94433-6.85156l9.18494-9.02015A25.65124,25.65124,0,0,0,382.74164,254.84216Z"/><path fill="#66c1ff" d="M6.47733,385.2753a6,6,0,0,1,.14335-8.269l44.01356-44.69669a15,15,0,0,1,21.21321,0l102.4398,102.4398a15,15,0,0,1,0,21.21321l-49.27359,49.1142a6,6,0,0,1-8.6543-.19038Z"/><polygon fill="#4eb7ff" points="22.168 361.119 145.649 484.6 156.256 473.994 32.711 350.449 22.168 361.119"/></svg>