<svg xmlns="http://www.w3.org/2000/svg" width="32" height="32" viewBox="0 0 32 32"><g transform="translate(999.531 -1406.633)"><path fill="#2b4255" fill-rule="evenodd" d="m -983.08622,1407.705 -15.44492,6.418 0,4.4551 3.04016,0 0,20.0547 24.82868,0 0,-20.0547 3.04016,0 0,-4.4551 z"/><path fill="#576d7e" d="m -992.53394,1422.7181 18.91465,0 0,15.9147 -18.91465,0 z"/><path fill="#f8b84e" d="M-992.57666 1418.6229l5 0 0 2-5 0zM-978.57666 1418.6229l5 0 0 2-5 0zM-985.57666 1418.6229l5 0 0 2-5 0z"/><path fill="#fcd062" d="M-989.57666 1428.6229l5 0 0 5-5 0zM-989.57666 1433.6229l5 0 0 5-5 0zM-982.57666 1433.6229l5 0 0 5-5 0z"/><path fill="#f8b84e" d="M-989.57666 1432.6327l5 0 0 .9902-5 0zM-989.57666 1437.6327l5 0 0 .9902-5 0zM-982.57666 1437.6327l5 0 0 .9902-5 0z"/></g></svg>